<svg xmlns="http://www.w3.org/2000/svg" viewBox="0 0 32 32" fill="none">
  <defs>
    <linearGradient id="favBg" x1="0" y1="0" x2="32" y2="32" gradientUnits="userSpaceOnUse">
      <stop offset="0%" stop-color="#4f46e5"/>
      <stop offset="100%" stop-color="#3730a3"/>
    </linearGradient>
  </defs>
  <!-- Background Badge -->
  <rect width="32" height="32" rx="8" fill="url(#favBg)"/>
  
  <!-- Stylized C Collection Curve -->
  <path d="M 21 8 C 13.5 8 9 12 9 16 C 9 20 13.5 24 21 24 C 23.5 24 25.5 23.2 27 21.8 L 24.5 19.2 C 23.6 20 22.4 20.5 21 20.5 C 15.8 20.5 12.8 17.8 12.8 16 C 12.8 14.2 15.8 11.5 21 11.5 C 22.4 11.5 23.6 12 24.5 12.8 L 27 10.2 C 25.5 8.8 23.5 8 21 8 Z" fill="#ffffff"/>
  
  <!-- Upward Recovery Arrow (Emerald Accent) -->
  <path d="M 17 17 L 26 8 M 26 8 L 20 8 M 26 8 L 26 14" stroke="#10b981" stroke-width="3" stroke-linecap="round" stroke-linejoin="round"/>
  
  <!-- Sarthi Amber Guide Point -->
  <circle cx="16.5" cy="17.5" r="2" fill="#f59e0b"/>
</svg>
